<mxfile host="app.diagrams.net" modified="2024-03-10T20:00:20.705Z" agent="Mozilla/5.0 (Windows NT 10.0; Win64; x64) AppleWebKit/537.36 (KHTML, like Gecko) Chrome/122.0.0.0 Safari/537.36" etag="INy63LY2fpptj4zmJd3g" version="23.1.6" type="device">
  <diagram name="PÃ¡gina-1" id="WcI4VH5G5T2VMPeNYlhp">
    <mxGraphModel dx="734" dy="678" grid="1" gridSize="10" guides="1" tooltips="1" connect="1" arrows="1" fold="1" page="1" pageScale="1" pageWidth="827" pageHeight="1169" math="0" shadow="0">
      <root>
        <mxCell id="0" />
        <mxCell id="1" parent="0" />
        <mxCell id="mh2UlVbWIGzgVhlDVFiX-1" value="pc" style="rounded=0;whiteSpace=wrap;html=1;" vertex="1" parent="1">
          <mxGeometry x="310" y="210" width="120" height="60" as="geometry" />
        </mxCell>
        <mxCell id="mh2UlVbWIGzgVhlDVFiX-2" value="&lt;h1&gt;codigo&lt;/h1&gt;&lt;p&gt;Lorem ipsum dolor sit amet, consectetur adipisicing elit, sed do eiusmod tempor incididunt ut labore et dolore magna aliqua.&lt;/p&gt;" style="text;html=1;spacing=5;spacingTop=-20;whiteSpace=wrap;overflow=hidden;rounded=0;" vertex="1" parent="1">
          <mxGeometry x="510" y="170" width="190" height="120" as="geometry" />
        </mxCell>
        <mxCell id="mh2UlVbWIGzgVhlDVFiX-6" value="" style="edgeStyle=orthogonalEdgeStyle;rounded=0;orthogonalLoop=1;jettySize=auto;html=1;" edge="1" parent="1" source="mh2UlVbWIGzgVhlDVFiX-3" target="mh2UlVbWIGzgVhlDVFiX-4">
          <mxGeometry relative="1" as="geometry">
            <Array as="points">
              <mxPoint x="180" y="180" />
              <mxPoint x="180" y="180" />
            </Array>
          </mxGeometry>
        </mxCell>
        <mxCell id="mh2UlVbWIGzgVhlDVFiX-3" value="terminal" style="shape=parallelogram;perimeter=parallelogramPerimeter;whiteSpace=wrap;html=1;fixedSize=1;" vertex="1" parent="1">
          <mxGeometry x="120" y="240" width="120" height="60" as="geometry" />
        </mxCell>
        <mxCell id="mh2UlVbWIGzgVhlDVFiX-4" value="&lt;font style=&quot;font-size: 51px;&quot;&gt;.exe&lt;/font&gt;" style="text;html=1;align=center;verticalAlign=middle;whiteSpace=wrap;rounded=0;" vertex="1" parent="1">
          <mxGeometry x="90" y="100" width="160" height="100" as="geometry" />
        </mxCell>
        <mxCell id="mh2UlVbWIGzgVhlDVFiX-5" value="&lt;font style=&quot;font-size: 46px;&quot;&gt;.c&lt;/font&gt;" style="text;html=1;align=center;verticalAlign=middle;whiteSpace=wrap;rounded=0;" vertex="1" parent="1">
          <mxGeometry x="100" y="390" width="110" height="60" as="geometry" />
        </mxCell>
      </root>
    </mxGraphModel>
  </diagram>
</mxfile>
